<svg xmlns="http://www.w3.org/2000/svg" viewBox="0 0 33.53 31.68"><defs><style>.cls-1{fill:#84cc16;}</style></defs><g id="Layer_2" data-name="Layer 2"><g id="Layer_1-2" data-name="Layer 1"><path class="cls-1" d="M2.12,27.44A4.82,4.82,0,0,0,7,31.68H26.56a4.81,4.81,0,0,0,4.85-4.24,2.63,2.63,0,0,0,2.12-2.58.52.52,0,0,0-.52-.52H.52a.52.52,0,0,0-.52.52A2.63,2.63,0,0,0,2.12,27.44ZM19,29.58H7a.52.52,0,0,1-.52-.52A.52.52,0,0,1,7,28.53H19a.52.52,0,0,1,.52.52h0A.52.52,0,0,1,19,29.58Zm7.42,0H21.87a.52.52,0,0,1-.52-.52.53.53,0,0,1,.52-.53h4.59a.52.52,0,0,1,.52.52h0a.52.52,0,0,1-.52.52ZM14.28,26.44h14.8a.52.52,0,0,1,0,1H14.28a.52.52,0,0,1-.64-.35.53.53,0,0,1,.35-.65A.71.71,0,0,1,14.28,26.44Zm-9.83,0h7a.52.52,0,0,1,0,1h-7a.52.52,0,0,1-.64-.35.53.53,0,0,1,.35-.65A.71.71,0,0,1,4.45,26.44ZM13,20.74a1,1,0,0,1-1.29.58l-.06,0a.53.53,0,0,0-.33,1A2.09,2.09,0,0,0,14,21.13a.52.52,0,0,0-.26-.69h0a.54.54,0,0,0-.7.27h0ZM21.31,19a.51.51,0,0,0-.31-.66h0a.53.53,0,0,0-.66.33,1,1,0,0,1-1.26.64l-.06,0a.54.54,0,0,0-.61.42h0a.51.51,0,0,0,.34.58A2.09,2.09,0,0,0,21.31,19Zm.2-3a.53.53,0,0,0-.45-.58h0A2.07,2.07,0,0,0,18.71,17a.51.51,0,0,0,.43.6h0c.45.06.47-.26.62-.57a1.11,1.11,0,0,1,1.2-.65.52.52,0,0,0,.54-.47Zm.36,7a2.1,2.1,0,0,0,2.59-1.29.53.53,0,0,0-.39-.64.53.53,0,0,0-.61.3,1,1,0,0,1-1.26.64l-.06,0a.54.54,0,0,0-.61.42h0a.52.52,0,0,0,.35.58ZM9.57,20.69a1,1,0,0,1-1.36-.38l0-.06a.54.54,0,0,0-.75-.05.52.52,0,0,0-.14.6,2.09,2.09,0,0,0,2.79.79.53.53,0,0,0,.24-.7.52.52,0,0,0-.69-.24h0Zm-5.77.2a.53.53,0,0,0-.17.72h0a.51.51,0,0,0,.68.18,1.05,1.05,0,0,1,1.41.4.52.52,0,0,0,.72.14h0a.52.52,0,0,0,.14-.71A2.08,2.08,0,0,0,3.8,20.89Zm14.78,1.2a1,1,0,0,1-1.29-.57l0-.05a.53.53,0,1,0-1,.34h0a2.09,2.09,0,0,0,2.58,1.29.52.52,0,0,0,.54-.5.52.52,0,0,0-.5-.54.54.54,0,0,0-.22,0h-.09Zm6.08-3.59a.55.55,0,0,0-.46-.58h0a2.07,2.07,0,0,0-2.34,1.7.52.52,0,0,0,.4.62h.1a.54.54,0,0,0,.53-.44A1,1,0,0,1,24,19h.06A.52.52,0,0,0,24.66,18.5ZM27,21.74a.55.55,0,0,0-.35.7h0a.49.49,0,0,0,.26.32c.38.18.84-.25,1.09-.49a2.11,2.11,0,0,0,.85-1.95.51.51,0,0,0-.6-.39h0a.52.52,0,0,0-.4.6A1.06,1.06,0,0,1,27,21.74Z"/><path class="cls-1" d="M1.59,23.29a.51.51,0,0,0,.55-.48c.2-3,2.1-3.35,5.24-4l.94-.19a.47.47,0,0,0,.35-.26,9.32,9.32,0,0,1,1.19-1.73L9.06,16a10.33,10.33,0,0,0-1.18,1.7l-.69.14C4.06,18.42,1.35,19,1.1,22.72a.52.52,0,0,0,.48.56h0Zm13.64-9.76a9.64,9.64,0,0,1,10.46,5,.52.52,0,0,0,.32.26c.51.16,1,.29,1.46.42,2.48.68,3.85,1,4,3.57a.52.52,0,0,0,.52.49h0a.51.51,0,0,0,.48-.55h0c-.22-3.26-2.33-3.84-4.79-4.51l-1.21-.34a10.51,10.51,0,0,0-9.39-5.59,10.9,10.9,0,0,0-3.75.67l.23.23A4.81,4.81,0,0,1,15.23,13.53Zm-4,2.92a4,4,0,0,0,1.46,2.9,4.5,4.5,0,0,0,1.57.94,1.26,1.26,0,0,0,.24.84c0-.14.85-.52.83-.61-.12-.41.44-.64.7-.79a1.11,1.11,0,0,0,.57-1,1.87,1.87,0,0,1,.28-1c.19-.28.59-.54.4-.93a4.64,4.64,0,0,0-1.11-1.46,4,4,0,0,0-3-1.1l-7.07-7a.53.53,0,0,0-.74,0l-1.9,1.9a.55.55,0,0,0-.16.4.52.52,0,0,0,.19.37Zm17.58-2.28a.53.53,0,0,0,.06.74.51.51,0,0,0,.73-.05h0v-.07s2.72-3.87-1.7-8.29C26.65,5.23,26.09,4.07,26.24,3A3.19,3.19,0,0,1,27.89,1,.53.53,0,0,0,28,.24a.52.52,0,0,0-.65-.2A4.32,4.32,0,0,0,25.3,2.88c-.21,1.39.45,2.85,2,4.36C31,11,29,14.05,28.86,14.17Z"/><path class="cls-1" d="M24,7.44c2.9,2.44,1.63,4.7,1.57,4.8a.52.52,0,1,0,.87.58h0s1.8-3.11-1.81-6.13a3.43,3.43,0,0,1-1.38-2.41,4.37,4.37,0,0,1,1-2.81.51.51,0,0,0,0-.73h0a.54.54,0,0,0-.75,0,5.47,5.47,0,0,0-1.31,3.58A4.57,4.57,0,0,0,24,7.44Z"/></g></g></svg>