<svg xmlns="http://www.w3.org/2000/svg" viewBox="0 0 212.13 31.71"><defs><style>.cls-1{fill:#84cc16;}.cls-2{fill:none;}</style></defs><g><g><path class="cls-1" d="M0,29.23V3.39H17.48V7.31H4.69v7.25h9.5v3.51H4.69V29.23Zm18.77,0V11.49h4.51v2.84a6.29,6.29,0,0,1,3-2.14,13.47,13.47,0,0,1,4.53-.7V15a12.12,12.12,0,0,0-4.68.83,5,5,0,0,0-2.75,2.6V29.23Zm23.92.55a11.62,11.62,0,0,1-7.84-2.47A8.63,8.63,0,0,1,32,20.4a9.36,9.36,0,0,1,2.55-6.92q2.55-2.55,7.28-2.55a11,11,0,0,1,5.3,1.19,7.88,7.88,0,0,1,3.31,3.23A9.69,9.69,0,0,1,51.52,20v2.14H36.4q.48,4,6.88,4a20.77,20.77,0,0,0,3.47-.3A16.29,16.29,0,0,0,49.86,25V28.6a15,15,0,0,1-3.24.85,23.69,23.69,0,0,1-3.93.33ZM36.4,19H47.12a4.14,4.14,0,0,0-1.49-3.25,6,6,0,0,0-3.9-1.15,5.79,5.79,0,0,0-3.85,1.19A4.22,4.22,0,0,0,36.4,19ZM65.2,29.78a11.62,11.62,0,0,1-7.84-2.47,8.63,8.63,0,0,1-2.88-6.91A9.36,9.36,0,0,1,57,13.48q2.55-2.55,7.28-2.55a11,11,0,0,1,5.3,1.19,7.88,7.88,0,0,1,3.31,3.23A9.69,9.69,0,0,1,74,20v2.14H58.91q.48,4,6.88,4a20.77,20.77,0,0,0,3.47-.3A16.29,16.29,0,0,0,72.37,25V28.6a15,15,0,0,1-3.24.85,23.69,23.69,0,0,1-3.93.33ZM58.91,19H69.63a4.14,4.14,0,0,0-1.49-3.25,6,6,0,0,0-3.9-1.15,5.79,5.79,0,0,0-3.85,1.19A4.22,4.22,0,0,0,58.91,19Z"/><path class="cls-2" d="M77,0h33.53V31.71H77Z"/><path class="cls-1" d="M79.15,27.47A4.83,4.83,0,0,0,84,31.71h19.59a4.82,4.82,0,0,0,4.85-4.24,2.63,2.63,0,0,0,2.12-2.58.52.52,0,0,0-.52-.52H77.55a.52.52,0,0,0-.52.52A2.63,2.63,0,0,0,79.15,27.47Zm16.92,2.14h-12a.52.52,0,0,1-.52-.52.52.52,0,0,1,.52-.53h12a.52.52,0,0,1,.52.53A.52.52,0,0,1,96.07,29.61Zm7.42,0H98.9a.52.52,0,0,1-.52-.52.53.53,0,0,1,.52-.53h4.59a.52.52,0,0,1,.52.53A.52.52,0,0,1,103.49,29.61ZM91.31,26.47h14.8a.52.52,0,0,1,0,1H91.31a.52.52,0,1,1,0-1Zm-9.83,0h7a.52.52,0,0,1,0,1h-7a.52.52,0,1,1,0-1ZM90,20.77a1,1,0,0,1-1.35.55.53.53,0,0,0-.65.36.54.54,0,0,0,.32.64A2.1,2.1,0,0,0,91,21.16a.52.52,0,0,0-.26-.69.54.54,0,0,0-.7.27v0ZM98.34,19a.52.52,0,0,0-.33-.67.53.53,0,0,0-.66.33,1,1,0,0,1-1.32.62.52.52,0,0,0-.61.43.51.51,0,0,0,.34.58A2.1,2.1,0,0,0,98.34,19Zm.2-3.05a.52.52,0,0,0-.46-.58h0A2.07,2.07,0,0,0,95.74,17a.52.52,0,0,0,.44.6h0c.45.06.47-.26.62-.57A1.1,1.1,0,0,1,98,16.38.52.52,0,0,0,98.54,15.91Zm.36,7a2.1,2.1,0,0,0,2.59-1.29.53.53,0,0,0-1-.34,1,1,0,0,1-1.32.62.52.52,0,0,0-.61.43.52.52,0,0,0,.35.58ZM86.6,20.72a1,1,0,0,1-1.39-.44.53.53,0,0,0-.89.55,2.1,2.1,0,0,0,2.79.79.53.53,0,0,0,.24-.7.52.52,0,0,0-.7-.24.05.05,0,0,0,0,0Zm-5.77.2a.52.52,0,0,0-.16.73.51.51,0,0,0,.68.18,1.05,1.05,0,0,1,1.41.4.52.52,0,0,0,.73.13.52.52,0,0,0,.14-.71A2.07,2.07,0,0,0,80.83,20.92Zm14.78,1.2a1,1,0,0,1-1.31-.62.52.52,0,1,0-1,.34,2.09,2.09,0,0,0,2.58,1.29.52.52,0,1,0-.18-1l-.08,0Zm6.08-3.59a.54.54,0,0,0-.46-.58h0a2.07,2.07,0,0,0-2.34,1.7.52.52,0,0,0,.42.62h.08a.54.54,0,0,0,.53-.44,1,1,0,0,1,1.2-.83A.53.53,0,0,0,101.69,18.53Zm2.3,3.24a.55.55,0,0,0-.35.7.52.52,0,0,0,.26.32c.38.18.84-.25,1.09-.49a2.12,2.12,0,0,0,.85-1.95.51.51,0,0,0-.62-.39.52.52,0,0,0-.4.6A1.06,1.06,0,0,1,104,21.77Z"/><path class="cls-1" d="M78.62,23.32a.52.52,0,0,0,.55-.48c.2-3,2.1-3.35,5.24-4l.94-.19a.49.49,0,0,0,.35-.26,9.32,9.32,0,0,1,1.19-1.73l-.8-.68a9.93,9.93,0,0,0-1.18,1.7l-.69.14c-3.13.63-5.84,1.17-6.09,4.93a.52.52,0,0,0,.48.56Zm13.64-9.76a9.63,9.63,0,0,1,10.46,5,.52.52,0,0,0,.32.26c.51.16,1,.29,1.46.42,2.48.68,3.85,1,4,3.57a.52.52,0,0,0,.52.49h0a.52.52,0,0,0,.48-.56c-.22-3.26-2.33-3.84-4.79-4.51l-1.21-.34a10.51,10.51,0,0,0-9.39-5.59,10.9,10.9,0,0,0-3.75.67l.23.23A4.51,4.51,0,0,1,92.26,13.56Zm-4,2.92a4,4,0,0,0,1.46,2.9,4.66,4.66,0,0,0,1.57.94,1.26,1.26,0,0,0,.24.84c0-.14.85-.52.83-.61-.12-.41.44-.64.7-.79a1.1,1.1,0,0,0,.57-1,1.85,1.85,0,0,1,.28-1c.19-.28.59-.54.4-.93a4.53,4.53,0,0,0-1.11-1.46,4,4,0,0,0-3-1.1l-7.07-7a.53.53,0,0,0-.74,0l-1.9,1.9a.55.55,0,0,0-.16.4.54.54,0,0,0,.19.37Zm17.58-2.28a.53.53,0,0,0,.06.74.52.52,0,0,0,.74-.06l0-.07s2.72-3.87-1.7-8.29c-1.26-1.26-1.82-2.42-1.67-3.46A3.17,3.17,0,0,1,104.92,1a.53.53,0,0,0-.5-.93,4.28,4.28,0,0,0-2.09,2.84c-.21,1.39.45,2.85,2,4.36C108.06,11,106,14.08,105.89,14.2Z"/><path class="cls-1" d="M101,7.47c2.9,2.44,1.63,4.7,1.57,4.8a.52.52,0,0,0,.87.58l0,0s1.8-3.11-1.81-6.13a3.45,3.45,0,0,1-1.38-2.41,4.34,4.34,0,0,1,1-2.81.52.52,0,0,0,0-.74.54.54,0,0,0-.75,0,5.47,5.47,0,0,0-1.31,3.58A4.57,4.57,0,0,0,101,7.47Z"/><path class="cls-1" d="M113.56,29.23V3.39h4.58l8.65,18.93,8.65-18.93H140V29.23h-4.43V12.45L127.9,29.23h-2.22L118,12.45V29.23Zm40.88.55a11.64,11.64,0,0,1-7.84-2.47,8.63,8.63,0,0,1-2.88-6.91,9.36,9.36,0,0,1,2.55-6.92q2.55-2.55,7.28-2.55a11,11,0,0,1,5.3,1.19,7.88,7.88,0,0,1,3.31,3.23A9.69,9.69,0,0,1,163.27,20v2.14H148.15c.32,2.64,2.62,4,6.88,4a20.68,20.68,0,0,0,3.47-.3,16.1,16.1,0,0,0,3.11-.81V28.6a15,15,0,0,1-3.24.85,23.69,23.69,0,0,1-3.93.33ZM148.15,19h10.72a4.09,4.09,0,0,0-1.5-3.25,6,6,0,0,0-3.89-1.15,5.81,5.81,0,0,0-3.85,1.19A4.25,4.25,0,0,0,148.15,19Zm25.32,10.79a7.91,7.91,0,0,1-5.21-1.68,5.58,5.58,0,0,1-2-4.53A5.79,5.79,0,0,1,168.15,19a8,8,0,0,1,5.4-1.66,11.68,11.68,0,0,1,5.8,1.37v-.48a3.16,3.16,0,0,0-1.17-2.74,6.41,6.41,0,0,0-3.75-.85,16.48,16.48,0,0,0-3.21.32,12.9,12.9,0,0,0-2.81.87V12.12a12,12,0,0,1,3-.85,19.9,19.9,0,0,1,3.61-.34q4.62,0,6.83,2A7,7,0,0,1,184,18.4V29.23h-4.4V27.49a7.86,7.86,0,0,1-2.6,1.7,9.59,9.59,0,0,1-3.57.59Zm1.15-3.4a6.3,6.3,0,0,0,2.81-.61,4.52,4.52,0,0,0,1.92-1.68v-2a7.83,7.83,0,0,0-4.66-1.44c-2.48,0-3.73,1-3.73,2.88a2.48,2.48,0,0,0,.94,2.11A4.5,4.5,0,0,0,174.62,26.38Zm13.67,2.85V1.92H193V29.23Zm16,.55a21.18,21.18,0,0,1-4.11-.44,10.1,10.1,0,0,1-3.4-1.22V24.17a13.37,13.37,0,0,0,3.44,1.42,14.53,14.53,0,0,0,3.77.54,7.69,7.69,0,0,0,2.59-.32,1.15,1.15,0,0,0,.81-1.16,1.47,1.47,0,0,0-.42-1.09,3.66,3.66,0,0,0-1.37-.78c-.62-.23-1.59-.52-2.9-.87a19.67,19.67,0,0,1-3.5-1.29,5.13,5.13,0,0,1-1.92-1.68,5,5,0,0,1-.64-2.65,4.46,4.46,0,0,1,2.1-4,10.48,10.48,0,0,1,5.69-1.35,19,19,0,0,1,3.68.36,9,9,0,0,1,2.87,1v3.81a10.2,10.2,0,0,0-2.7-1.07,13.1,13.1,0,0,0-3.25-.41,8.31,8.31,0,0,0-2.74.35,1.34,1.34,0,0,0-.92,1.35,1.28,1.28,0,0,0,.5,1.06,4.33,4.33,0,0,0,1.31.66c.54.19,1.53.46,2.95.83a15.82,15.82,0,0,1,3.59,1.37A4.61,4.61,0,0,1,211.58,22a5.41,5.41,0,0,1,.55,2.58,4.42,4.42,0,0,1-2,3.79,10,10,0,0,1-5.82,1.42Z"/></g></g></svg>