<svg xmlns="http://www.w3.org/2000/svg" viewBox="0 0 220.08 36.32"><defs><style>.cls-1{fill:#84cc16;}</style></defs><g><g><path class="cls-1" d="M1,35.84a.92.92,0,0,1-.7-.29A1,1,0,0,1,0,34.87v-32a.94.94,0,0,1,.29-.68A.94.94,0,0,1,1,1.94H19.23a.94.94,0,0,1,.68.29.94.94,0,0,1,.29.68.92.92,0,0,1-.29.7,1,1,0,0,1-.68.27H1.8l.14-.2v14l-.19-.39h15.3a1,1,0,0,1,1,1,.9.9,0,0,1-.29.7,1,1,0,0,1-.68.27H1.65l.29-.39V34.87a1,1,0,0,1-.27.68.9.9,0,0,1-.7.29Zm26.2,0a.92.92,0,0,1-.7-.29,1,1,0,0,1-.27-.68V12.64a.91.91,0,0,1,.3-.68,1,1,0,0,1,1.38,0,1,1,0,0,1,.26.68v8.19l-.82,1.26A12.08,12.08,0,0,1,28,18.26a12.81,12.81,0,0,1,1.92-3.61A10,10,0,0,1,33,11.94a8.32,8.32,0,0,1,4.19-1,5.9,5.9,0,0,1,1.45.19.89.89,0,0,1,.78.92,1.11,1.11,0,0,1-.24.73.82.82,0,0,1-.63.29,1.57,1.57,0,0,1-.71-.22,2.5,2.5,0,0,0-1.18-.22,5.81,5.81,0,0,0-3,.92A10.49,10.49,0,0,0,30.83,16a12.52,12.52,0,0,0-2,3.32,9.1,9.1,0,0,0-.73,3.48V34.87a1,1,0,0,1-1,1Zm26.49.48a13,13,0,0,1-6.41-1.55,11.2,11.2,0,0,1-4.39-4.38,13.39,13.39,0,0,1-1.59-6.66,14.13,14.13,0,0,1,1.57-6.92,11.46,11.46,0,0,1,4.07-4.39,10,10,0,0,1,5.3-1.52,12.46,12.46,0,0,1,4,.65,9.91,9.91,0,0,1,3.47,2A10.52,10.52,0,0,1,62.12,17a12.86,12.86,0,0,1,1,4.92,1,1,0,0,1-.29.7.9.9,0,0,1-.68.32H42.43l-.29-1.84H61.66l-.49.43v-.87a8,8,0,0,0-1.62-4.31,9.09,9.09,0,0,0-3.32-2.64,9.57,9.57,0,0,0-4-.89,8.17,8.17,0,0,0-3.05.65,8.91,8.91,0,0,0-2.95,2A10.18,10.18,0,0,0,44,18.84a12.36,12.36,0,0,0-.84,4.75A12.36,12.36,0,0,0,44.34,29a9.48,9.48,0,0,0,3.54,4,10.53,10.53,0,0,0,5.78,1.5,8.61,8.61,0,0,0,3.1-.55,9.88,9.88,0,0,0,2.62-1.48,9.28,9.28,0,0,0,1.89-2,1.1,1.1,0,0,1,.82-.43.77.77,0,0,1,.58.26.85.85,0,0,1,.25.61.89.89,0,0,1-.2.58,14.32,14.32,0,0,1-3.85,3.39,9.7,9.7,0,0,1-5.21,1.45Zm26.55,0a13,13,0,0,1-6.42-1.55,11.12,11.12,0,0,1-4.38-4.38,13.29,13.29,0,0,1-1.6-6.66,14.13,14.13,0,0,1,1.57-6.92,11.46,11.46,0,0,1,4.07-4.39,10,10,0,0,1,5.3-1.52,12.46,12.46,0,0,1,4,.65,9.91,9.91,0,0,1,3.47,2A10.52,10.52,0,0,1,88.66,17a12.86,12.86,0,0,1,1,4.92,1,1,0,0,1-.29.7.9.9,0,0,1-.68.32H69l-.29-1.84H88.2l-.49.43v-.87a8,8,0,0,0-1.62-4.31,9.09,9.09,0,0,0-3.32-2.64,9.57,9.57,0,0,0-4-.89,8.17,8.17,0,0,0-3,.65,8.91,8.91,0,0,0-3,2,10.18,10.18,0,0,0-2.21,3.37,12.36,12.36,0,0,0-.84,4.75A12.36,12.36,0,0,0,70.88,29a9.48,9.48,0,0,0,3.54,4,10.57,10.57,0,0,0,5.79,1.5,8.59,8.59,0,0,0,3.09-.55,9.88,9.88,0,0,0,2.62-1.48,9.28,9.28,0,0,0,1.89-2,1.1,1.1,0,0,1,.82-.43.77.77,0,0,1,.58.26.85.85,0,0,1,.25.61.89.89,0,0,1-.2.58,14.32,14.32,0,0,1-3.85,3.39A9.69,9.69,0,0,1,80.21,36.32Z"/><path class="cls-1" d="M95.22,1.89a2.93,2.93,0,0,1,1.21.29,2.24,2.24,0,0,1,1,.82l12.3,18.75-2.08-.1L120.16,3a2.34,2.34,0,0,1,2-1.11,2.43,2.43,0,0,1,1.72.7,2.33,2.33,0,0,1,.75,1.77v29a2.46,2.46,0,0,1-.68,1.77,2.37,2.37,0,0,1-1.79.7,2.53,2.53,0,0,1-1.87-.7,2.4,2.4,0,0,1-.7-1.77V8.82l1.55.33L110.48,25.38a3.19,3.19,0,0,1-.87.75,2.4,2.4,0,0,1-2.21,0,2.89,2.89,0,0,1-.89-.75L96.24,9.4,97.4,7.46V33.37a2.53,2.53,0,0,1-.65,1.77,2.24,2.24,0,0,1-1.72.7,2.16,2.16,0,0,1-1.67-.7,2.49,2.49,0,0,1-.66-1.77v-29a2.32,2.32,0,0,1,.75-1.74,2.44,2.44,0,0,1,1.77-.73ZM143.6,36.32a14,14,0,0,1-6.95-1.67,11.76,11.76,0,0,1-4.6-4.6,13.63,13.63,0,0,1-1.62-6.71,14.44,14.44,0,0,1,1.72-7.28,12.28,12.28,0,0,1,4.5-4.65,11.46,11.46,0,0,1,5.89-1.63,11.06,11.06,0,0,1,4.48,1,12.27,12.27,0,0,1,3.8,2.61,12.58,12.58,0,0,1,2.62,3.93,13,13,0,0,1,1,4.91,2.17,2.17,0,0,1-.77,1.6,2.52,2.52,0,0,1-1.7.63H133.19L132,20.29h18.21l-.92.88V20a5.47,5.47,0,0,0-1.16-3,6.92,6.92,0,0,0-2.5-2,7.12,7.12,0,0,0-3.12-.7,8.62,8.62,0,0,0-2.81.46,6,6,0,0,0-2.37,1.48,7.36,7.36,0,0,0-1.65,2.68,11.79,11.79,0,0,0-.63,4.14,9.35,9.35,0,0,0,1.11,4.65,8,8,0,0,0,3,3.08,8.23,8.23,0,0,0,4.21,1.09,10,10,0,0,0,2.91-.36,7.54,7.54,0,0,0,1.93-.9,15.51,15.51,0,0,0,1.36-1,3,3,0,0,1,1.45-.43,2,2,0,0,1,1.46.6,2,2,0,0,1,.58,1.43A2.51,2.51,0,0,1,152,33.13a11.82,11.82,0,0,1-3.61,2.23,12.38,12.38,0,0,1-4.82,1Zm37-26.34a2.35,2.35,0,0,1,1.72.7,2.4,2.4,0,0,1,.7,1.77V33.37a2.4,2.4,0,0,1-.7,1.77,2.35,2.35,0,0,1-1.72.7,2.32,2.32,0,0,1-1.75-.7,2.45,2.45,0,0,1-.67-1.77V29.88l1,.15a3.6,3.6,0,0,1-.7,1.94A9.28,9.28,0,0,1,176.49,34a10.36,10.36,0,0,1-2.86,1.65,9.62,9.62,0,0,1-3.53.65,10.87,10.87,0,0,1-6-1.71,12.09,12.09,0,0,1-4.21-4.73,14.71,14.71,0,0,1-1.55-6.83,14.8,14.8,0,0,1,1.55-6.9,12,12,0,0,1,4.19-4.67,11.1,11.1,0,0,1,9.73-1,11.09,11.09,0,0,1,3.08,1.75,9.16,9.16,0,0,1,2,2.25,4.29,4.29,0,0,1,.73,2.25l-1.5.14v-4.4a2.49,2.49,0,0,1,.67-1.75,2.3,2.3,0,0,1,1.75-.72Zm-9.88,21.89a7,7,0,0,0,4-1.16,7.92,7.92,0,0,0,2.69-3.18,10.12,10.12,0,0,0,1-4.48,10.11,10.11,0,0,0-1-4.5,7.83,7.83,0,0,0-2.69-3.15,7.41,7.41,0,0,0-8,0A7.74,7.74,0,0,0,164,18.55a10.25,10.25,0,0,0-1,4.5,10.25,10.25,0,0,0,1,4.48,7.92,7.92,0,0,0,2.69,3.18A7,7,0,0,0,170.68,31.87Zm24.26-29.4v30.9a2.4,2.4,0,0,1-.7,1.77,2.46,2.46,0,0,1-3.44,0,2.4,2.4,0,0,1-.7-1.77V2.47A2.37,2.37,0,0,1,190.82.7a2.43,2.43,0,0,1,1.75-.7,2.24,2.24,0,0,1,1.72.7A2.53,2.53,0,0,1,194.94,2.47Zm5.72,29.4a2.61,2.61,0,0,1-.39-1.58,1.94,1.94,0,0,1,1-1.52,2.16,2.16,0,0,1,1.42-.36,2.34,2.34,0,0,1,1.43.75,10.94,10.94,0,0,0,3,2.37,8.64,8.64,0,0,0,4,.87,10.13,10.13,0,0,0,2-.31,3.84,3.84,0,0,0,1.74-1,2.71,2.71,0,0,0,.73-2.06,2.53,2.53,0,0,0-.78-1.94,5.91,5.91,0,0,0-2-1.18c-.84-.31-1.74-.59-2.71-.85s-2.08-.62-3.13-1a11.45,11.45,0,0,1-2.83-1.38,6.79,6.79,0,0,1-2.06-2.2,6.54,6.54,0,0,1-.8-3.35,6.18,6.18,0,0,1,1.29-3.92A8.52,8.52,0,0,1,206,10.7a10.91,10.91,0,0,1,4.48-.92,12.54,12.54,0,0,1,2.95.37,12.25,12.25,0,0,1,3,1.14,8.35,8.35,0,0,1,2.51,2,2.74,2.74,0,0,1,.56,1.5,1.75,1.75,0,0,1-.8,1.55,2,2,0,0,1-1.4.44,2.09,2.09,0,0,1-1.36-.54,6.15,6.15,0,0,0-2.37-1.81,7.86,7.86,0,0,0-3.29-.66,7.4,7.4,0,0,0-1.92.27,3.68,3.68,0,0,0-1.67.94,2.71,2.71,0,0,0-.68,2,2.51,2.51,0,0,0,.8,1.94,6.62,6.62,0,0,0,2.11,1.21,28.64,28.64,0,0,0,2.86.87c1,.26,2,.57,3,.92a10.64,10.64,0,0,1,2.66,1.38,6.69,6.69,0,0,1,1.94,2.18,6.81,6.81,0,0,1,.75,3.37,6.13,6.13,0,0,1-1.38,4,8.8,8.8,0,0,1-3.49,2.54,11.51,11.51,0,0,1-4.43.87,16.1,16.1,0,0,1-5.5-1,10.05,10.05,0,0,1-4.62-3.46Z"/></g></g></svg>